<?xml version="1.0" standalone="no"?>
<!DOCTYPE svg PUBLIC "-//W3C//DTD SVG 20010904//EN"
 "http://www.w3.org/TR/2001/REC-SVG-20010904/DTD/svg10.dtd">
<svg version="1.0" xmlns="http://www.w3.org/2000/svg"
 width="50.000000pt" height="50.000000pt" viewBox="0 0 50.000000 50.000000"
 preserveAspectRatio="xMidYMid meet">

<g transform="translate(0.000000,50.000000) scale(0.100000,-0.100000)"
fill="#000000" stroke="none">
<path d="M146 464 c-24 -23 -24 -405 0 -428 22 -23 186 -23 208 0 24 23 24
405 0 428 -12 12 -37 16 -104 16 -67 0 -92 -4 -104 -16z m138 -50 c31 -30 9
-84 -34 -84 -24 0 -50 26 -50 50 0 24 26 50 50 50 10 0 26 -7 34 -16z m0 -130
c31 -30 9 -84 -34 -84 -24 0 -50 26 -50 50 0 10 7 26 16 34 8 9 24 16 34 16
10 0 26 -7 34 -16z m0 -130 c31 -30 9 -84 -34 -84 -24 0 -50 26 -50 50 0 24
26 50 50 50 10 0 26 -7 34 -16z"/>
<path d="M65 420 c-6 -10 19 -65 35 -75 6 -4 10 11 10 39 0 39 -3 46 -19 46
-11 0 -23 -4 -26 -10z"/>
<path d="M390 384 c0 -50 11 -51 35 -3 18 34 13 49 -16 49 -16 0 -19 -7 -19
-46z"/>
<path d="M65 290 c-6 -10 19 -65 35 -75 6 -4 10 11 10 39 0 39 -3 46 -19 46
-11 0 -23 -4 -26 -10z"/>
<path d="M390 254 c0 -50 11 -51 35 -3 18 34 13 49 -16 49 -16 0 -19 -7 -19
-46z"/>
<path d="M65 160 c-6 -10 19 -65 35 -75 6 -4 10 11 10 39 0 39 -3 46 -19 46
-11 0 -23 -4 -26 -10z"/>
<path d="M390 124 c0 -50 11 -51 35 -3 18 34 13 49 -16 49 -16 0 -19 -7 -19
-46z"/>
</g>
</svg>
